<svg xmlns="http://www.w3.org/2000/svg" aria-hidden="true" style="position:absolute;width:0;height:0;overflow:hidden">
  <defs>
    <symbol id="icon-minus" viewBox="0 0 224 32">
      <path fill="#407bff" d="M4 16C4 9.373 9.373 4 16 4h192c6.627 0 12 5.373 12 12s-5.373 12-12 12H16C9.373 28 4 22.627 4 16z" style="fill:var(--color1, #407bff)"/>
    </symbol>
    <symbol id="icon-plus" viewBox="0 0 32 32">
      <path fill="#407bff" d="M16 .571c.947 0 1.714.768 1.714 1.714v12h12a1.714 1.714 0 0 1 0 3.428h-12v12a1.714 1.714 0 1 1-3.428 0v-12h-12a1.714 1.714 0 1 1 0-3.428h12v-12c0-.947.768-1.714 1.714-1.714z" style="fill:var(--color1, #407bff)"/>
    </symbol>
    <symbol id="icon-cross" viewBox="0 0 32 32">
      <path fill="none" stroke="#407bff" stroke-linecap="round" stroke-linejoin="round" stroke-width="2" d="M8 24 24 8M8 8l16 16" style="stroke:var(--color1, #407bff)"/>
    </symbol>
    <symbol id="icon-glass" viewBox="0 0 25 32">
      <path fill="#407bff" d="M.277.139 2.56 31.776v.085h19.639L24.481.239v-.1H.277zm21.116 30.837H3.373L1.662 7.279h.94l1.547 20.883c.011.11.059.212.139.288a.43.43 0 0 0 .293.117h.036a.426.426 0 0 0 .295-.149v-.001a.434.434 0 0 0 .106-.285l-.001-.034v.002L3.47 7.279h19.634l-1.712 23.696zm1.772-24.582H3.403l-.339-4.617a.447.447 0 0 0-.146-.292.439.439 0 0 0-.294-.113h-.009a.443.443 0 0 0-.295.154l-.001.001a.45.45 0 0 0-.105.32v-.001l.34 4.555H1.6l-.387-5.38h22.339l-.388 5.373z" style="fill:var(--color1, #407bff)"/>
      <path fill="#407bff" d="M7.232 11.661c.283 0 .559-.085.795-.245a1.447 1.447 0 0 0 .637-1.206c0-.4-.16-.764-.419-1.029a1.409 1.409 0 0 0-1.57-.311l.009-.004a1.45 1.45 0 0 0-.64.53l-.003.005a1.463 1.463 0 0 0 .178 1.835c.269.272.633.425 1.013.425zm0-2.025h.001a.56.56 0 0 1 .518.349l.001.004a.58.58 0 0 1-.122.624.56.56 0 0 1-.963-.391v-.015.001-.001a.563.563 0 0 1 .564-.57zm-.006 6.746c.003.287.091.565.25.802a1.436 1.436 0 0 0 1.182.632 1.41 1.41 0 0 0 1.019-.434 1.468 1.468 0 0 0 .295-1.593l.004.01a1.462 1.462 0 0 0-.525-.644l-.005-.003a1.412 1.412 0 0 0-1.81.194 1.45 1.45 0 0 0-.411 1.013v.025-.001zm1.989 0a.581.581 0 0 1-.344.528l-.004.001a.559.559 0 0 1-.615-.124.576.576 0 0 1 .398-.977h.001a.567.567 0 0 1 .564.572zm8.186.036a1.442 1.442 0 0 0 1.431-1.451c0-.4-.16-.763-.419-1.029a1.409 1.409 0 0 0-1.57-.311l.009-.004a1.447 1.447 0 0 0-.64.529l-.003.005a1.463 1.463 0 0 0 .178 1.835c.269.272.634.425 1.013.425zm0-2.018h.002a.56.56 0 0 1 .519.35l.001.004a.581.581 0 0 1-.125.626.562.562 0 0 1-.961-.396v-.018.001a.57.57 0 0 1 .168-.401.558.558 0 0 1 .397-.165zm-4.988-.72c.283 0 .56-.085.796-.245a1.457 1.457 0 0 0 .636-1.207c0-.4-.16-.763-.419-1.028a1.409 1.409 0 0 0-1.57-.311l.009-.004a1.447 1.447 0 0 0-.64.529l-.003.005a1.463 1.463 0 0 0 .178 1.835c.268.272.633.426 1.012.426zm0-2.026h.002c.235 0 .436.145.518.35l.001.004a.576.576 0 0 1-.123.623.563.563 0 0 1-.62.123l.004.001a.567.567 0 0 1-.348-.522v-.008l-.001-.03a.58.58 0 0 1 .155-.395.56.56 0 0 1 .411-.178v.03zM9.682 21.915a1.198 1.198 0 0 0 1.185 1.171 1.198 1.198 0 0 0 1.085-1.675l.003.008a1.203 1.203 0 0 0-.432-.531l-.004-.003c-.183-.125-.41-.2-.654-.201-.33.009-.626.15-.838.371a1.237 1.237 0 0 0-.345.858v.002zm1.184-.32h.001c.131 0 .243.081.29.195l.001.002a.32.32 0 0 1-.069.349.315.315 0 0 1-.538-.222v-.004a.318.318 0 0 1 .316-.32zm4.538-1.016a1.218 1.218 0 0 0 1.154-.737 1.247 1.247 0 0 0-.25-1.36 1.206 1.206 0 0 0-1.346-.263l.008-.003a1.236 1.236 0 0 0-.738 1.132c0 .337.134.642.351.866.218.224.512.354.821.365zm0-1.52a.317.317 0 0 1 .316.32.322.322 0 0 1-.092.226.313.313 0 0 1-.448 0 .33.33 0 0 1-.097-.226c0-.089.037-.17.095-.228a.311.311 0 0 1 .221-.092h.005zm2.5-8.414a1.209 1.209 0 0 0 1.118-.751l.003-.008a1.248 1.248 0 0 0-.263-1.342 1.203 1.203 0 0 0-1.331-.264l.008-.003a1.224 1.224 0 0 0-.541.449l-.003.005a1.245 1.245 0 0 0 .15 1.555c.227.23.537.361.859.361zm0-1.52a.314.314 0 0 1 .369.163l.001.002a.325.325 0 0 1-.092.398l-.001.001a.314.314 0 0 1-.28.052l.002.001a.311.311 0 0 1-.367-.164l-.001-.002a.322.322 0 0 1 .091-.397l.001-.001a.309.309 0 0 1 .28-.052l-.002-.001zM6.042 29.429a.442.442 0 0 0-.231.26l-.001.003a.45.45 0 0 0 .033.355l-.001-.002c.075.141.22.237.388.24h.012a.406.406 0 0 0 .184-.044l-.002.001c1.738-.923 3.798-1.468 5.985-1.477h.003a15.71 15.71 0 0 1 6.383 1.459.428.428 0 0 0 .496-.066.446.446 0 0 0 .11-.498l.001.003a.453.453 0 0 0-.228-.245l-.003-.001c-1.981-.942-4.3-1.506-6.748-1.539h-.011a13.924 13.924 0 0 0-6.371 1.551z" style="fill:var(--color1, #407bff)"/>
    </symbol>
  </defs>
</svg>
