<svg aria-hidden="true" style="position: absolute; width: 0px; height: 0px; overflow-x: hidden; overflow-y: hidden;" version="1.1" xmlns="http://www.w3.org/2000/svg">
    <defs>
        <symbol id="icon-Logo-2" viewBox="0 0 68 32">
            <path
                fill="#9ebbff"
                style=""
                d="M10.546 4.88c.45-.354 1.016.41 1.076 1.117s-.568 2.295-2.33 2.707c-1.764.412-1.973 1.5-1.914 2.148s-.24 1.354-.867 1.207-.686-1.12-.12-2.032c.57-.913 2.003-1.736 2.242-2.237s.06-1.088.538-1.294c.478-.206 1.106.324 1.046.824 0 0 .478-.47.418-1.177-.04-.464-.315-1.088-.09-1.265z"
            />
            <path fill="#9ebbff" style="" d="M22.14 9.176c.167-.472 1.346-.206 1.615.44s.18 1.15.448 1.59-.478 1.177-1.03 1.09c-.554-.09-.345-1.09-.345-1.53s-.956-.825-.687-1.59z" />
            <path fill="#9ebbff" style="" d="M18.406 3.618c.41-.36 1.285.26 1.524.76s.03 1.824-.702 1.795c-.732-.03-.44-1.065-.702-1.28-.463-.382-.448-.986-.12-1.275z" />
            <path fill="#9ebbff" style="" d="M13.36.553c.29.45.075 1.06-.662 1.197s-.877-.47-1.275-.334c-.4.138-.837.235-1.016-.08s.02-.784.817-.784 1.605-.824 2.137 0z" />
            <path fill="#9ebbff" style="" d="M8.724 4.843c.347 0 .627-.298.627-.666s-.28-.666-.626-.666c-.347 0-.628.3-.628.667s.28.666.628.666z" />
            <path fill="#9ebbff" style="" d="M6.002 7.047c-.223-.11-.954 1.04-.456 1.177s.812-1 .456-1.177z" />
            <path fill="#9ebbff" style="" d="M4.052 10.46s.976.53.618 1.618-1.135.952-1.375.618c-.24-.334-.24-.785.16-1.1s.597-1.136.597-1.136z" />
            <path fill="#9ebbff" style="" d="M24.77 16.326s.3.442.15 1.236-.387 2.354.45 2.796c.835.442 1.164-1.118.836-1.59s.18-2.09-1.435-2.442z" />
            <path fill="#9ebbff" style="" d="M25.832 23.418c.355 0 .643-.343.643-.765s-.288-.765-.643-.765-.643.343-.643.765c0 .423.287.765.642.765z" />
            <path fill="#9ebbff" style="" d="M.625 23.712c.554-.283 1.016.177 1.076 1.03s.868 1.59.45 2.03c-.42.44-.906-1.383-1.286-1.552-.583-.26-1.046-1.096-.24-1.508z" />
            <path
                fill="#9ebbff"
                style=""
                d="M24.157 24.565c-.522.53.173 1.078-1.06 2.472-.512.58.38 2.315-2.09 2.295 0 0-1.436 1.294-2.87 1.472s-2.032-.06-3.407.706c-1.375.765-4.423-.53-5.678-1.09s-1.733-.617-2.808-.617c-1.076 0-.657-1.648-1.435-2.354s-1.675-1-1.735-1.648c-.06-.647-.657-.942-.597-1.943s-.956-1.296-1.076-2.532.537-1.47.298-2.177c-.24-.705-.298-1.294.06-2 .043-.086.092-.168.148-.245.307-.43.602-.398.808-1.108.24-.824-.418-1.177.3-1.53s.955.706.537 1.765c-.42 1.06-.957 2.06-.24 2.236s.54-2 1.496-3.002c.955-1 .537-1.235 1.792-2.236s1.375-.588 1.793-1.648c.418-1.06 1.6-2.177 2.803-2.707s1.74-.765 1.56-1.648c-.18-.883.824-.883.86-1.825s-.8-1.59-1.517-1.354-1.434.235-1.194-.53c.24-.764 1.744-.705 2.456-.353s1.31-.53 2.266.354c.956.882 2.21 1.176 2.032 3.237s-.358 2.766.418 2.884c.777.12.12-.94.12-1.764s1.375-.765 1.733-.118c.36.647-.118 1.765.24 2.178s1.016.353 1.195.94c.18.59-.12 3.003.717 3.533s.657-1.295 1.375-.736c.717.56.896 1.56.478 2.56-.28.67-.308 2.34-.146 3.776.078.71.203 1.366.367 1.815.494 1.353.52 2.412 0 2.942z"
            />
            <path
                fill="#c6d7ff"
                style=""
                d="M14.25 9.565c1.568-.488 2.886 2.212 2.34 3.372s-.78 4.74 1.247 4.294c2.028-.444.546-3.886 1.638-3.817s.624 3.22 1.326 4.217c.703 1 3.126 7.836-.777 10.217s-9.425 2.305-11.54.538a9.2 9.2 0 0 1-1.92-2.176 4.6 4.6 0 0 1-.434-.853c-.19-.512-.158-.692-.35-1.206a4.883 4.883 0 0 0-.482-.943c-.422-.638-.613-.564-1.007-1.12-.13-.185-.55-.81-.587-1.656-.01-.22-.038-.838.23-.948.3-.125.692.52 1.093.386.21-.07.302-.314.36-.466.17-.45 0-.73-.083-1.4-.063-.516-.138-1.138.17-1.663.05-.087.196-.368.68-.63 1.697-.922 3.22-.077 4.33-1.767s1.133-1.8 2.175-2.245c1.042-.444.106-1.673 1.588-2.134z"
            />
            <path
                fill="#407bff"
                style=""
                d="M13.626 32c-1.108 0-2.655-.447-4.68-1.35-1.232-.55-1.67-.595-2.703-.595-.817 0-.99-.734-1.13-1.323-.1-.416-.202-.847-.478-1.098-.257-.234-.526-.418-.786-.597-.526-.362-.98-.674-1.03-1.213-.02-.214-.118-.39-.233-.595-.18-.324-.405-.725-.365-1.386.024-.41-.173-.678-.423-1.016-.275-.37-.587-.79-.653-1.476-.068-.703.095-1.11.225-1.44.107-.268.17-.43.086-.682-.216-.638-.357-1.346.074-2.193.18-.357.372-.524.526-.66.175-.152.3-.262.413-.65.084-.286.037-.498-.008-.703-.068-.308-.153-.69.44-.983.298-.146.59-.122.8.067.38.34.418 1.188.092 2.016-.057.145-.117.29-.175.43-.228.55-.485 1.17-.373 1.388.01.018.03.058.132.083.005.002.012.003.018.002.115-.04.255-.59.338-.918.167-.657.374-1.476.89-2.014.39-.41.535-.678.676-.94.2-.37.39-.72 1.142-1.32.48-.382.798-.565 1.03-.698.358-.205.454-.26.686-.845.437-1.107 1.644-2.277 2.936-2.846l.006-.002c1.252-.552 1.543-.707 1.41-1.366-.12-.59.193-.898.446-1.145.212-.206.395-.384.408-.737a1.13 1.13 0 0 0-.442-.96c-.23-.17-.5-.223-.738-.144-.46.15-1.075.264-1.398-.047-.13-.125-.257-.365-.122-.797.087-.277.3-.493.616-.626.654-.275 1.65-.15 2.2.122.196.098.382.063.67 0 .44-.1.987-.222 1.654.394.203.187.426.35.642.51.797.585 1.62 1.19 1.47 2.932-.022.258-.045.494-.065.71-.155 1.63-.124 1.844.268 1.903a.39.39 0 0 0 .084.007c.017-.106-.055-.39-.103-.585-.072-.292-.155-.623-.155-.937 0-.41.255-.717.68-.824.51-.127 1.243.06 1.534.586.216.392.18.89.148 1.33-.023.318-.05.68.06.804.11.128.278.203.454.283.29.13.653.296.792.75.065.213.075.57.087 1.02.024.827.06 2.077.524 2.37.085.055.133.062.15.057.067-.02.165-.228.223-.353.11-.24.238-.51.508-.574.164-.04.337.012.514.15.8.625 1.018 1.744.555 2.854-.384.92-.25 4.104.226 5.41.55 1.5.53 2.608-.056 3.203-.136.138-.15.263-.17.53-.034.434-.08 1.026-.88 1.932-.1.113-.124.357-.15.615-.068.698-.17 1.746-2.037 1.767-.324.276-1.61 1.307-2.934 1.47-.407.05-.75.068-1.053.084-.765.04-1.318.068-2.26.592-.323.18-.732.27-1.23.27zM3.276 14.45a.34.34 0 0 0-.146.04c-.237.118-.23.147-.17.426.05.228.12.54.002.95-.153.527-.363.71-.565.888-.14.122-.27.238-.41.508-.328.648-.26 1.172-.045 1.81.144.425.023.73-.095 1.025-.116.293-.248.625-.192 1.208.053.548.31.894.556 1.227.274.37.557.75.522 1.342-.03.516.13.806.303 1.112.13.233.265.473.294.792.027.306.373.544.81.845.262.18.558.383.84.64.392.356.518.886.63 1.354.157.664.258.934.63.934 1.073 0 1.602.056 2.916.64 3.407 1.518 4.842 1.437 5.447 1.1 1.046-.582 1.68-.615 2.484-.657.294-.015.628-.032 1.017-.08 1.338-.165 2.714-1.395 2.728-1.407a.256.256 0 0 1 .173-.066h.002c1.494.012 1.554-.6 1.624-1.31.034-.342.066-.663.274-.898.69-.78.726-1.255.755-1.638.02-.28.042-.57.313-.844.428-.435.407-1.412-.057-2.682-.528-1.444-.652-4.734-.218-5.772.374-.896.217-1.785-.4-2.267a.337.337 0 0 0-.08-.05c-.046.045-.117.196-.16.29-.118.253-.253.54-.545.626-.176.05-.368.012-.57-.116-.693-.438-.73-1.738-.758-2.78-.01-.382-.02-.742-.066-.89-.07-.227-.233-.31-.516-.438-.208-.094-.445-.2-.63-.413-.245-.283-.213-.714-.18-1.17.028-.388.057-.79-.088-1.05-.16-.292-.638-.42-.957-.34-.296.075-.296.272-.296.336 0 .253.075.553.14.817.11.44.206.82-.013 1.057-.12.13-.302.177-.54.14-.918-.138-.845-.91-.7-2.446.02-.215.043-.45.065-.707.127-1.46-.487-1.913-1.266-2.485a7.624 7.624 0 0 1-.687-.546c-.47-.433-.79-.362-1.192-.27-.3.066-.642.142-1.013-.042-.44-.218-1.274-.316-1.768-.11-.177.075-.288.18-.33.312-.043.14-.046.25-.008.288.068.065.357.1.88-.072.4-.13.84-.052 1.206.22.426.314.668.83.647 1.383s-.32.843-.56 1.077c-.25.245-.368.377-.304.688.22 1.08-.503 1.398-1.7 1.925l-.007.003c-1.16.51-2.282 1.59-2.668 2.57-.285.72-.472.85-.904 1.097-.217.125-.517.297-.965.654-.67.534-.83.826-1.012 1.165-.15.276-.32.59-.756 1.048-.423.442-.612 1.19-.764 1.79-.09.353-.166.657-.278.883-.22.444-.533.442-.7.4a.675.675 0 0 1-.464-.343c-.217-.422.05-1.063.356-1.806.057-.14.116-.28.172-.423.28-.712.203-1.316.042-1.46a.11.11 0 0 0-.082-.03z"
            />
            <path
                fill="#407bff"
                style=""
                d="M6.676 12.268a.91.91 0 0 1-.208-.025.803.803 0 0 1-.564-.49c-.202-.478-.077-1.177.326-1.824.328-.527.904-1.005 1.413-1.427.374-.31.728-.603.818-.792.08-.162.107-.346.134-.524.05-.324.106-.692.5-.863.27-.117.6-.065.88.14.14.1.255.234.336.387.086-.177.16-.414.136-.69a3.59 3.59 0 0 0-.087-.47c-.09-.394-.176-.767.068-.96a.576.576 0 0 1 .6-.08c.393.167.738.75.787 1.33.065.772-.613 2.472-2.478 2.908-1.657.387-1.818 1.386-1.766 1.947.048.512-.108 1.002-.396 1.248a.748.748 0 0 1-.497.184zM9.398 6.64a.38.38 0 0 0-.15.03c-.19.083-.226.253-.275.573-.03.195-.064.416-.166.63-.126.263-.476.553-.918.92-.488.404-1.04.86-1.334 1.334-.33.53-.45 1.124-.298 1.48.06.146.162.236.3.268a.39.39 0 0 0 .364-.077c.195-.166.302-.54.266-.928-.05-.55.05-1.88 2.06-2.35 1.64-.382 2.24-1.845 2.183-2.507-.04-.476-.324-.916-.554-1.014a.185.185 0 0 0-.21.026c-.052.062.025.4.067.58.04.175.08.354.095.522.066.785-.452 1.305-.474 1.326-.028.028-.064.046-.104.053a.192.192 0 0 1-.2-.095.178.178 0 0 1-.023-.113c.02-.18-.092-.394-.283-.533a.597.597 0 0 0-.346-.126z"
            />
            <path
                fill="#407bff"
                style=""
                d="M23.27 12.49a.78.78 0 0 1-.13-.01c-.618-.098-.56-.893-.52-1.42.008-.11.016-.217.016-.296 0-.1-.133-.25-.26-.393-.26-.29-.617-.687-.417-1.257.078-.224.3-.358.61-.366.49-.012 1.15.288 1.36.798.137.327.186.617.23.872.045.263.084.49.206.69.137.226.105.515-.087.795-.213.31-.614.59-1.013.59zm-.665-3.366h-.022c-.067.002-.226.016-.26.112-.118.336.058.568.34.884.185.205.358.4.358.643 0 .093-.007.205-.016.324-.03.39-.073.976.2 1.02.235.037.576-.15.76-.418.05-.073.157-.255.076-.388-.16-.263-.206-.535-.256-.823a3.415 3.415 0 0 0-.206-.793c-.14-.336-.618-.563-.972-.563z"
            />
            <path
                fill="#407bff"
                style=""
                d="M19.253 6.363h-.033c-.63-.026-.7-.622-.744-.977-.014-.116-.036-.31-.075-.348a1.132 1.132 0 0 1-.425-.847.923.923 0 0 1 .302-.712c.158-.138.37-.186.615-.136.497.1 1.028.575 1.21.957.186.388.15 1.186-.177 1.672-.174.257-.406.392-.674.392zm-.54-2.663a.262.262 0 0 0-.18.06.546.546 0 0 0-.173.425.748.748 0 0 0 .29.564c.152.125.18.352.208.593.05.43.105.632.378.643.145.006.266-.067.37-.224.244-.36.286-1.018.15-1.302-.14-.292-.57-.674-.94-.748a.602.602 0 0 0-.103-.012z"
            />
            <path
                fill="#407bff"
                style=""
                d="M12.487 1.96c-.34 0-.556-.148-.72-.26-.157-.108-.206-.13-.28-.105-.29.1-.964.332-1.247-.164a.636.636 0 0 1 .003-.64c.094-.16.347-.426.98-.426.243 0 .502-.093.754-.182.496-.177 1.114-.397 1.545.27.174.27.203.585.08.867-.14.314-.456.54-.87.616-.08.016-.164.024-.247.024zm-.95-.753c.183 0 .327.1.45.182.177.12.345.236.676.174.29-.054.5-.195.588-.396a.535.535 0 0 0-.05-.514c-.253-.393-.55-.31-1.09-.117-.283.1-.575.205-.885.205-.322 0-.56.087-.65.24a.258.258 0 0 0 0 .263c.088.152.33.15.786-.007a.536.536 0 0 1 .178-.03z"
            />
            <path fill="#407bff" style="" d="M8.724 5.032c-.452 0-.82-.383-.82-.855s.368-.855.82-.855.82.383.82.855-.37.855-.82.855zm0-1.332c-.24 0-.436.214-.436.477s.195.477.436.477c.24 0 .436-.214.436-.477S8.965 3.7 8.724 3.7z" />
            <path
                fill="#407bff"
                style=""
                d="M5.632 8.425a.534.534 0 0 1-.138-.02.407.407 0 0 1-.3-.325c-.072-.37.278-.947.54-1.14.158-.118.28-.1.354-.062.307.152.314.62.163 1.005-.135.345-.364.542-.618.542zm.31-1.17c-.14.12-.386.507-.374.73.003.05.012.05.03.056.11.032.23-.13.295-.295.086-.218.08-.408.05-.49z"
            />
            <path
                fill="#407bff"
                style=""
                d="M3.796 13.126a.814.814 0 0 1-.658-.32c-.324-.452-.243-1.01.196-1.355.284-.222.48-.82.53-1.033a.188.188 0 0 1 .11-.13.194.194 0 0 1 .17.008c.386.21 1.03.864.708 1.842-.253.77-.693.944-.933.98a.848.848 0 0 1-.124.01zm.362-2.354c-.1.29-.29.742-.584.973-.343.27-.28.622-.122.842a.435.435 0 0 0 .41.155c.263-.04.484-.296.625-.722.21-.633-.102-1.045-.328-1.248z"
            />
            <path
                fill="#407bff"
                style=""
                d="M25.652 20.624a.8.8 0 0 1-.374-.1c-.905-.478-.745-1.94-.546-2.997.132-.7-.118-1.093-.12-1.097a.19.19 0 0 1 .002-.212.193.193 0 0 1 .2-.078c1.27.278 1.37 1.283 1.435 1.948.023.243.046.472.115.572.283.405.18 1.306-.2 1.72a.685.685 0 0 1-.512.242zm-.556-3.993c.058.233.09.56.014.967-.274 1.455-.156 2.328.35 2.594.17.09.3.073.42-.06.273-.3.334-1.014.168-1.253-.126-.18-.152-.444-.182-.75-.055-.563-.117-1.19-.77-1.495z"
            />
            <path fill="#407bff" style="" d="M25.832 23.607c-.46 0-.834-.428-.834-.954s.374-.954.834-.954.835.427.835.953-.375.954-.835.954zm0-1.53c-.248 0-.45.258-.45.576s.202.576.45.576c.25 0 .45-.26.45-.577s-.2-.576-.45-.576z" />
            <path
                fill="#407bff"
                style=""
                d="M2.013 27.03a.292.292 0 0 1-.05-.004c-.304-.044-.52-.47-.77-.965-.117-.232-.314-.62-.41-.668-.442-.197-.77-.64-.784-1.05-.01-.334.18-.617.535-.798.264-.135.537-.14.768-.01.333.183.547.62.588 1.195.024.327.17.64.313.943.203.434.414.882.085 1.23a.372.372 0 0 1-.276.128zm-1.07-3.212c-.07 0-.148.02-.23.062-.222.114-.333.266-.328.452.007.265.253.58.56.717.205.09.36.38.594.844.122.243.345.686.467.754l.003-.003c.146-.153.036-.41-.153-.812-.15-.318-.32-.68-.347-1.076-.03-.44-.178-.773-.393-.892a.353.353 0 0 0-.174-.045z"
            />
            <path
                fill="#407bff"
                style=""
                d="M15.18 21.667c.154.752-.335 1.542-1.044 1.84-.992.445-2.237-.08-2.537-1.12a1.504 1.504 0 0 1-.037-.72c.005-.025.02-.047.04-.063a.113.113 0 0 1 .18.06c.163.766.808 1.338 1.58 1.33.764-.006 1.39-.57 1.556-1.326.026-.14.234-.138.26 0z"
            />
            <path fill="#fff" style="" opacity="0.5" d="M6.593 22.817c.692-.13 1.115-.942.946-1.814S6.67 19.53 5.98 19.66s-1.115.943-.946 1.815.867 1.472 1.56 1.342z" />
            <path fill="#fff" style="" opacity="0.5" d="M6.63 18.8c.715.218 1.433-2.087 2.7-2.61s2.102-2.162 2.49-3.224c.39-1.062 1.985-1.755 1.648-2.497s-1.796-.146-2.656.984-.476 2.31-1.773 2.81c-1.298.498-3.89 4.08-2.41 4.535z" />
            <path
                fill="#407bff"
                style=""
                opacity="0.2"
                d="M23.504 24.485c-.49.478.162.974-.995 2.232-.483.523.355 2.09-1.967 2.072 0 0-1.348 1.168-2.696 1.328s-1.91-.053-3.202.638c-1.292.69-4.157-.478-5.337-.983s-1.63-.558-2.64-.558c-1.01 0-.617-1.488-1.347-2.126S3.75 26.185 3.693 25.6c-.056-.584-.618-.85-.562-1.754s-.9-1.17-1.01-2.285c-.113-1.116.504-1.328.28-1.966s-.28-1.17.055-1.806a1.65 1.65 0 0 1 .14-.22c.013.36.034.722.16.946.13.232.3.446.38.697.204.645-.252 1.3-.318 1.97-.123 1.24 1.04 2.2 1.836 3.193.708.883 1.216 1.97 2.216 2.547 1.112.644 2.555.478 3.774.04s2.33-1.123 3.573-1.5c1.437-.438 2.978-.445 4.485-.37 1.086.054 2.325.096 3.08-.643.434-.425.608-1.027.727-1.607.227-1.114.313-2.252.254-3.388l.394.737c.074.642.192 1.234.346 1.638.465 1.222.49 2.178 0 2.657z"
            />
            <path fill="#407bff" style="" d="M16.942 16.62c.82-.082 1.578.802 1.692 1.976s-.46 2.192-1.28 2.274c-.82.082-1.577-.802-1.69-1.976s.458-2.19 1.278-2.274z" />
            <path fill="#fff" style="" d="M17 17.112c.26.108.374.507.252.892s-.434.61-.695.503c-.26-.108-.374-.507-.25-.892s.433-.61.694-.503z" />
            <path fill="#8baeff" style="" d="M17.88 19.634c.123.09.138.31.033.492s-.29.255-.415.165c-.123-.09-.14-.31-.034-.49s.29-.256.415-.166z" />
            <path fill="#407bff" style="" d="M9.905 16.62c-.82-.082-1.578.802-1.692 1.976s.46 2.192 1.28 2.274c.82.082 1.577-.802 1.69-1.976s-.458-2.19-1.278-2.274z" />
            <path fill="#fff" style="" d="M9.847 17.112c-.26.108-.374.507-.25.892s.433.61.694.503.375-.507.253-.892c-.123-.385-.434-.61-.695-.503z" />
            <path fill="#8baeff" style="" d="M8.968 19.634c-.124.09-.14.31-.034.492s.29.255.415.165.138-.31.033-.49c-.105-.182-.29-.256-.415-.166z" />
            <path
                fill="#407bff"
                style=""
                d="M32.384 8.313V14h-1.168V8.313h1.168zm1.75 0v.918h-4.64v-.917h4.64zm.668 0h2.12c.436 0 .81.065 1.122.195.315.13.557.323.727.578s.255.57.255.94c0 .306-.052.567-.156.786a1.473 1.473 0 0 1-.435.543 2.256 2.256 0 0 1-.652.344l-.37.194h-1.845l-.008-.914h1.37c.207 0 .377-.036.513-.11s.237-.173.305-.304a.94.94 0 0 0 .105-.453c0-.182-.034-.34-.102-.473s-.17-.234-.308-.305a1.143 1.143 0 0 0-.52-.105h-.95V14h-1.17V8.313zM37.982 14l-1.297-2.535 1.238-.008 1.312 2.488V14H37.98zm4.258-4.715L40.693 14h-1.246l2.113-5.687h.793l-.113.973zM43.525 14l-1.55-4.715-.126-.973h.8L44.775 14h-1.25zm-.07-2.117v.918H40.45v-.917h3.004zm5.074.23h1.167a2.12 2.12 0 0 1-.316 1.02c-.184.297-.443.53-.776.695-.33.167-.73.25-1.195.25-.366 0-.692-.063-.98-.188a2.093 2.093 0 0 1-.743-.547c-.203-.237-.358-.523-.465-.86s-.16-.71-.16-1.128v-.395c0-.417.055-.793.164-1.13.112-.338.27-.625.477-.862.208-.237.457-.42.746-.547s.61-.19.968-.19c.474 0 .874.086 1.2.258.327.172.58.41.76.71.183.303.293.647.33 1.032h-1.173a1.51 1.51 0 0 0-.137-.582.774.774 0 0 0-.356-.363c-.156-.083-.365-.125-.625-.125-.195 0-.366.036-.512.11s-.268.183-.367.33c-.1.15-.173.337-.223.564-.047.224-.07.487-.07.79v.4c0 .295.022.554.066.778.045.22.113.41.204.563.094.15.214.266.36.344.147.075.326.112.534.112.245 0 .447-.04.605-.117s.28-.194.363-.348c.086-.154.137-.345.152-.574zm3.108-3.8V14h-1.172V8.313h1.172zm3.406 0-2.254 2.81-1.3 1.397-.212-1.11.88-1.202 1.448-1.894h1.437zM53.712 14l-1.676-2.63.867-.726L55.098 14H53.71zm5.656-.914V14H56.34v-.914h3.028zm-2.644-4.773V14h-1.172V8.313h1.172zm2.25 2.316v.89H56.34v-.89h2.634zm.39-2.317v.918h-3.022v-.917h3.023zm.688 0h2.12c.436 0 .81.065 1.122.195.315.13.557.323.727.578s.255.57.255.94c0 .306-.052.567-.156.786a1.473 1.473 0 0 1-.435.543 2.256 2.256 0 0 1-.652.344l-.37.194h-1.845l-.008-.914h1.37c.207 0 .377-.036.513-.11s.237-.173.305-.304a.94.94 0 0 0 .105-.453c0-.182-.034-.34-.102-.473s-.17-.234-.308-.305a1.143 1.143 0 0 0-.52-.105h-.95V14h-1.17V8.313zM63.232 14l-1.297-2.535 1.238-.008 1.312 2.488V14H63.23zm-28.72 6.357v.27c0 .432-.058.82-.175 1.164s-.283.638-.496.88c-.213.24-.468.423-.765.55a2.43 2.43 0 0 1-.98.192 2.46 2.46 0 0 1-.98-.19 2.21 2.21 0 0 1-.766-.552 2.576 2.576 0 0 1-.505-.88 3.603 3.603 0 0 1-.176-1.163v-.27c0-.435.058-.823.175-1.164.117-.344.283-.637.496-.88.217-.24.472-.426.767-.554a2.45 2.45 0 0 1 .98-.192c.36 0 .686.064.98.19.297.13.552.313.766.556.216.242.383.535.5.88.12.34.18.728.18 1.163zm-1.183.27v-.278c0-.303-.028-.57-.083-.798s-.135-.422-.242-.578a1.057 1.057 0 0 0-.918-.473 1.052 1.052 0 0 0-.914.473c-.104.157-.184.35-.238.58s-.082.494-.082.796v.276c0 .3.027.565.082.797.055.23.135.423.242.582.107.156.237.275.39.355s.33.12.528.12.374-.04.527-.12c.154-.08.283-.2.387-.355a1.82 1.82 0 0 0 .237-.582 3.47 3.47 0 0 0 .082-.797zm3.2-2.98v5.686h-1.173v-5.687h1.172zm2.264 2.43v.913h-2.586v-.914h2.586zm.274-2.43v.917h-2.86v-.918h2.86zm4.043 4.784 1.134-4.784h.633l.144.797-1.206 4.89h-.68l-.023-.9zm-.58-4.784.936 4.785-.078.903h-.758l-1.262-5.687h1.16zm3.487 4.765.926-4.765h1.16l-1.258 5.687h-.758l-.07-.922zm-.785-4.764 1.14 4.805-.03.884h-.68l-1.215-4.895.156-.794h.63zm5.648.972-1.547 4.715h-1.246l2.113-5.687h.793l-.113.973zm1.285 4.715-1.55-4.715-.126-.973h.8l2.125 5.687h-1.25zm-.07-2.117v.918H49.09v-.918h3.005zM56 17.646v5.687h-1.167v-5.687H56zm1.75 0v.918h-4.64v-.918h4.64zm4.486 4.773v.913H59.21v-.914h3.026zm-2.645-4.774v5.687h-1.17v-5.687h1.17zm2.25 2.316v.89H59.21v-.89h2.633zm.392-2.316v.918H59.21v-.918h3.022zm.687 0h2.12c.435 0 .81.065 1.12.195.316.13.558.324.728.58s.254.568.254.94c0 .305-.052.566-.156.785a1.484 1.484 0 0 1-.434.543 2.256 2.256 0 0 1-.652.344l-.37.195h-1.845l-.008-.914h1.37c.207 0 .377-.036.513-.11s.237-.173.305-.304a.94.94 0 0 0 .105-.454c0-.182-.034-.34-.102-.473s-.17-.234-.31-.305a1.143 1.143 0 0 0-.52-.105h-.948v4.77h-1.172v-5.687zm3.18 5.687L64.8 20.798l1.238-.008 1.312 2.488v.055h-1.254z"
            />
        </symbol>
        <symbol id="icon-arrow-long-left" viewBox="0 0 32 32">
            <path
                d="M9.706 10.293a1.002 1.002 0 0 1 0 1.414L6.413 15H28a.997.997 0 0 1 1 1 1 1 0 0 1-1 1H6.413l3.293 3.293a1.002 1.002 0 0 1 .025 1.44.992.992 0 0 1-.724.292 1 1 0 0 1-.714-.318l-5-5a1.002 1.002 0 0 1 0-1.414l5-5a1.002 1.002 0 0 1 1.414 0z"
            />
        </symbol>
        <symbol id="icon-arrow-right-on-rectangle" viewBox="0 0 32 32">
            <path
                stroke-linejoin="round"
                stroke-linecap="round"
                stroke-miterlimit="4"
                stroke-width="1.3333"
                d="M21 12V7c0-.796-.316-1.56-.88-2.12S18.796 4 18 4h-8c-.796 0-1.56.316-2.12.88S7 6.204 7 7v18c0 .796.316 1.56.88 2.12S9.204 28 10 28h8c.796 0 1.56-.316 2.12-.88S21 25.796 21 25v-5m4 0 4-4m0 0-4-4m4 4H12"
            />
        </symbol>
        <symbol id="icon-arrow-up-tray" viewBox="0 0 32 32">
            <path stroke-linejoin="round" stroke-linecap="round" stroke-miterlimit="4" stroke-width="1.3333" d="M4 22v3c0 .796.316 1.56.88 2.12S6.204 28 7 28h18c.796 0 1.56-.316 2.12-.88S28 25.796 28 25v-3M10 10l6-6m0 0 6 6m-6-6v18" />
        </symbol>
        <symbol id="icon-calendar-days" viewBox="0 0 32 32">
            <path
                fill="none"
                stroke="#407bff"
                style=""
                stroke-linejoin="round"
                stroke-linecap="round"
                stroke-miterlimit="4"
                stroke-width="1.6"
                d="M9 4v3m14-3v3M4 25V10c0-.796.316-1.56.88-2.12S6.204 7 7 7h18c.796 0 1.56.316 2.12.88S28 9.204 28 10v15M4 25c0 .796.316 1.56.88 2.12S6.204 28 7 28h18c.796 0 1.56-.316 2.12-.88S28 25.796 28 25M4 25V15c0-.796.316-1.56.88-2.12S6.204 12 7 12h18c.796 0 1.56.316 2.12.88S28 14.204 28 15v10m-12-8h.01v.01H16V17zm0 3h.01v.01H16V20zm0 3h.01v.01H16V23zm-3-3h.01v.01H13V20zm0 3h.01v.01H13V23zm-3-3h.01v.01H10V20zm0 3h.01v.01H10V23zm9-6h.01v.01H19V17zm0 3h.01v.01H19V20zm0 3h.01v.01H19V23zm3-6h.01v.01H22V17zm0 3h.01v.01H22V20z"
            />
        </symbol>
        <symbol id="icon-chevron-double-up" viewBox="0 0 32 32">
            <path
                d="M16.706 21.707a1.002 1.002 0 0 1-1.414 0l-10-10a.996.996 0 0 1 .025-1.388 1.002 1.002 0 0 1 1.388-.026l9.293 9.293 9.293-9.293a1.013 1.013 0 0 1 .715-.318.993.993 0 0 1 .725.293.992.992 0 0 1 .293.724 1 1 0 0 1-.318.714l-10 10z"
            />
        </symbol>
        <symbol id="icon-cog-6-tooth" viewBox="0 0 32 32">
            <path
                stroke-linejoin="round"
                stroke-linecap="round"
                stroke-miterlimit="4"
                stroke-width="1.3333"
                d="M12.792 5.253A1.5 1.5 0 0 1 14.272 4h3.457a1.5 1.5 0 0 1 1.48 1.253l.283 1.708c.084.5.417.916.86 1.16.1.054.196.112.293.17.432.26.96.343 1.433.165l1.622-.608a1.498 1.498 0 0 1 1.826.654l1.728 2.997c.177.308.24.668.177 1.018s-.25.665-.523.89l-1.337 1.103c-.39.32-.584.817-.575 1.323.002.114.002.228 0 .34-.01.505.184 1 .573 1.32l1.34 1.105c.566.467.713 1.272.348 1.907l-1.73 2.996a1.5 1.5 0 0 1-1.827.655l-1.622-.608c-.473-.177-1-.096-1.435.165-.097.06-.194.116-.293.17-.44.245-.775.66-.86 1.16l-.283 1.707a1.5 1.5 0 0 1-1.48 1.255h-3.46a1.5 1.5 0 0 1-1.48-1.253l-.283-1.71c-.083-.498-.416-.914-.86-1.16-.098-.054-.196-.11-.292-.168-.433-.26-.96-.343-1.435-.165l-1.623.608a1.5 1.5 0 0 1-1.825-.653l-1.73-2.996a1.5 1.5 0 0 1 .347-1.908l1.34-1.103c.388-.32.582-.817.572-1.323a9.634 9.634 0 0 1 0-.34c.008-.504-.185-1-.574-1.32l-1.34-1.104A1.502 1.502 0 0 1 4.74 11.5l1.73-2.995a1.497 1.497 0 0 1 1.825-.654l1.62.61c.476.176 1.002.095 1.436-.166.097-.06.196-.116.294-.17.443-.245.776-.66.86-1.16l.284-1.708z"
            />
            <path stroke-linejoin="round" stroke-linecap="round" stroke-miterlimit="4" stroke-width="1.3333" d="M20 16a4.005 4.005 0 0 1-4 4 4.005 4.005 0 0 1-4-4 4.005 4.005 0 0 1 4-4 4.005 4.005 0 0 1 4 4z" />
        </symbol>
        <symbol id="icon-eye" viewBox="0 0 32 32">
            <path
                stroke-linejoin="round"
                stroke-linecap="round"
                stroke-miterlimit="4"
                stroke-width="1.3333"
                d="M2.715 16.43a1.35 1.35 0 0 1 0-.853C4.565 10.013 9.815 6 16 6c6.184 0 11.43 4.01 13.284 9.57.093.277.093.576 0 .853C27.436 21.987 22.187 26 16 26c-6.184 0-11.432-4.01-13.285-9.57z"
            />
            <path stroke-linejoin="round" stroke-linecap="round" stroke-miterlimit="4" stroke-width="1.3333" d="M20 16a4.005 4.005 0 0 1-4 4 4.005 4.005 0 0 1-4-4 4.005 4.005 0 0 1 4-4 4.005 4.005 0 0 1 4 4z" />
        </symbol>
        <symbol id="icon-eye-slash" viewBox="0 0 32 32">
            <path
                stroke-linejoin="round"
                stroke-linecap="round"
                stroke-miterlimit="4"
                stroke-width="1.3333"
                d="M5.307 10.964A13.978 13.978 0 0 0 2.58 16C4.3 21.784 9.66 26 16 26c1.324 0 2.604-.184 3.817-.527M8.304 8.303A13.936 13.936 0 0 1 16 6c6.34 0 11.697 4.216 13.42 9.997a14.033 14.033 0 0 1-5.724 7.7M8.304 8.303 4 4m4.304 4.304 4.867 4.867m10.526 10.526L28 28m-4.304-4.304L18.83 18.83A3.996 3.996 0 0 0 20 16a4 4 0 0 0-4-4 4.017 4.017 0 0 0-2.83 1.172m5.658 5.656-5.655-5.655"
            />
        </symbol>
        <symbol id="icon-minus-small" viewBox="0 0 32 32"><path d="M7 16a.997.997 0 0 1 1-1h16a.997.997 0 0 1 1 1 .997.997 0 0 1-1 1H8a.997.997 0 0 1-1-1z" /></symbol>
        <symbol id="icon-pencil-square" viewBox="0 0 32 32">
            <path
                stroke-linejoin="round"
                stroke-linecap="round"
                stroke-miterlimit="4"
                stroke-width="1.3333"
                d="m22.483 5.983 2.25-2.25a2.5 2.5 0 0 1 3.535 3.535l-14.16 14.16a6.002 6.002 0 0 1-2.528 1.506L8 24l1.067-3.58a5.992 5.992 0 0 1 1.507-2.528l11.91-11.908zm0 0L26 9.5m-2 9.167V25c0 .796-.316 1.56-.88 2.12S21.796 28 21 28H7c-.796 0-1.56-.316-2.12-.88S4 25.796 4 25V11c0-.796.316-1.56.88-2.12S6.204 8 7 8h6.333"
            />
        </symbol>
        <symbol id="icon-plus-circle" viewBox="0 0 32 32"><path stroke-linejoin="round" stroke-linecap="round" stroke-miterlimit="4" stroke-width="1.3333" d="M16 12v8m4-4h-8m16 0a12 12 0 1 1-24.003.002A12 12 0 0 1 28.002 16z" /></symbol>
        <symbol id="icon-plus-small" viewBox="0 0 32 32"><path stroke-linejoin="round" stroke-linecap="round" stroke-miterlimit="4" stroke-width="1.3333" d="M16 8v16m8-8H8" /></symbol>
        <symbol id="icon-presentation-chart-bar" viewBox="0 0 32 32">
            <path
                fill="none"
                stroke="#407bff"
                style=""
                stroke-linejoin="round"
                stroke-linecap="round"
                stroke-miterlimit="4"
                stroke-width="1.6"
                d="M5 4v15c0 .796.316 1.56.88 2.12S7.204 22 8 22h3M5 4H3m2 0h22M11 22h10m-10 0-1.333 4M27 4h2m-2 0v15c0 .796-.316 1.56-.88 2.12S24.796 22 24 22h-3m0 0 1.333 4M9.667 26h12.667M9.667 26 9 28m13.333-2L23 28M12 15v2m4-5v5m4-8v8"
            />
        </symbol>
        <symbol id="icon-trash" viewBox="0 0 32 32">
            <path
                stroke-linejoin="round"
                stroke-linecap="round"
                stroke-miterlimit="4"
                stroke-width="1.3333"
                d="m19.653 12-.46 12m-6.385 0-.46-12m13.29-4.28c.455.07.908.143 1.362.22m-1.363-.22-1.424 18.51A3 3 0 0 1 21.22 29H10.78c-.756 0-1.484-.285-2.04-.798s-.894-1.217-.952-1.97L6.362 7.72m19.275 0A63.917 63.917 0 0 0 21 7.19m-14.637.53c-.456.068-.91.14-1.363.22m1.363-.22c1.54-.233 3.086-.41 4.637-.53m10 0V5.97c0-1.573-1.213-2.885-2.787-2.935a69.515 69.515 0 0 0-4.427 0C12.213 3.085 11 4.398 11 5.97v1.22m10 0a64.947 64.947 0 0 0-10 0"
            />
        </symbol>
        <symbol id="icon-user" viewBox="0 0 32 32">
            <path stroke-linejoin="miter" stroke-linecap="butt" stroke-miterlimit="4" stroke-width="1.3333" d="M31.333 16c0 8.468-6.865 15.333-15.333 15.333S.667 24.468.667 16 7.532.667 16 .667 31.333 7.532 31.333 16z" />
            <path
                stroke-linejoin="round"
                stroke-linecap="round"
                stroke-miterlimit="4"
                stroke-width="1.3333"
                d="M20 9.436c0 1.088-.42 2.132-1.17 2.9S17.06 13.54 16 13.54s-2.08-.433-2.83-1.203S12 10.524 12 9.437c0-1.09.42-2.133 1.17-2.902S14.94 5.333 16 5.333s2.08.432 2.83 1.202S20 8.348 20 9.435zM8 24.88c.034-2.152.892-4.204 2.39-5.714S13.9 16.81 16 16.81c2.1 0 4.115.846 5.61 2.356s2.356 3.562 2.39 5.715a18.732 18.732 0 0 1-8 1.786c-2.855 0-5.564-.64-8-1.785z"
            />
        </symbol>
        <symbol id="icon-wrench-screwdriver" viewBox="0 0 32 32">
            <path
                fill="none"
                stroke="#407bff"
                style=""
                stroke-linejoin="round"
                stroke-linecap="round"
                stroke-miterlimit="4"
                stroke-width="1.6"
                d="M15.227 20.227 23 28a3.535 3.535 0 0 0 5.996-2.513A3.535 3.535 0 0 0 28 23l-7.835-7.837m-4.938 5.064 3.328-4.04c.423-.512.987-.835 1.61-1.02.734-.22 1.552-.252 2.325-.188a6 6 0 0 0 5.982-8.45l-4.368 4.37a4.01 4.01 0 0 1-3-3l4.368-4.37a6.008 6.008 0 0 0-7.912 2.943 6.01 6.01 0 0 0-.536 3.04c.12 1.435-.095 3.02-1.205 3.933l-.137.113m-.456 6.667L9.02 27.764a3.403 3.403 0 0 1-2.46 1.24A3.4 3.4 0 0 1 3 25.44c.024-.474.146-.937.36-1.36a3.39 3.39 0 0 1 .88-1.1l9.115-7.507L7.88 10H6L3 5l2-2 5 3v1.878l5.68 5.68-2.327 1.916M24.5 24.5 21 21M6.49 25.5h.01v.01h-.01v-.01z"
            />
        </symbol>
        <symbol id="icon-eye" viewBox="0 0 37 32">
<path fill="none"  style="stroke: var(--color1, #407bff)" stroke-linejoin="round" stroke-linecap="round" stroke-miterlimit="4" stroke-width="2.2857" d="M6.065 10.245c-1.426 1.683-2.487 3.642-3.118 5.755 1.969 6.61 8.091 11.429 15.339 11.429 1.513 0 2.976-0.21 4.363-0.602M9.49 7.205c2.61-1.722 5.669-2.638 8.795-2.633 7.247 0 13.368 4.818 15.337 11.426-1.079 3.61-3.395 6.725-6.542 8.798M9.49 7.205l-4.919-4.919M9.49 7.205l5.562 5.562M27.081 24.795l4.919 4.919M27.081 24.795l-5.562-5.562c0.425-0.425 0.761-0.929 0.991-1.483s0.348-1.149 0.348-1.75c0-0.6-0.118-1.195-0.348-1.75s-0.567-1.059-0.991-1.483c-0.425-0.425-0.929-0.761-1.483-0.991s-1.149-0.348-1.75-0.348c-0.6 0-1.195 0.118-1.75 0.348s-1.059 0.566-1.483 0.991M21.518 19.232l-6.462-6.462"></path>
</symbol>
    </defs>
</svg>
