<svg aria-hidden="true" style="position: absolute; width: 0; height: 0; overflow: hidden;" version="1.1" xmlns="http://www.w3.org/2000/svg" xmlns:xlink="http://www.w3.org/1999/xlink">
<defs>
<symbol id="icon-icon-trash" viewBox="0 0 27 32">
<path fill="none" stroke="#ef5050" style="stroke: var(--color1, #ef5050)" stroke-linejoin="round" stroke-linecap="round" stroke-miterlimit="4" stroke-width="2.2857" d="M17.89 11.429l-0.528 13.714M10.066 25.143l-0.526-13.714M24.729 6.537c0.521 0.080 1.038 0.162 1.557 0.251M24.729 6.537l-1.627 21.154c-0.141 1.777-1.617 3.166-3.418 3.166-0.001 0-0.002 0-0.003 0h-11.934c-0 0-0.001 0-0.001 0-1.801 0-3.278-1.389-3.418-3.154l-0.001-0.012-1.627-21.154M24.729 6.537c-1.385-0.227-3.205-0.442-5.043-0.589l-0.258-0.017M2.699 6.537c-0.521 0.078-1.038 0.16-1.557 0.251M2.699 6.537c1.76-0.265 3.527-0.469 5.301-0.606M19.429 5.931v-1.394c0-1.799-1.387-3.298-3.184-3.355-0.754-0.026-1.64-0.040-2.53-0.040s-1.776 0.015-2.659 0.044l0.129-0.003c-1.797 0.057-3.184 1.561-3.184 3.355v1.394M19.429 5.931c-1.711-0.14-3.703-0.22-5.714-0.22s-4.004 0.080-5.974 0.237l0.26-0.017"></path>
</symbol>
<symbol id="icon-icon-pencil-square" viewBox="0 0 32 32">
<path fill="none" stroke="#9ebbff" style="stroke: var(--color2, #9ebbff)" stroke-linejoin="round" stroke-linecap="round" stroke-miterlimit="4" stroke-width="2.2857" d="M23.408 4.551l2.571-2.571c0.517-0.517 1.232-0.837 2.021-0.837 1.578 0 2.858 1.279 2.858 2.858 0 0.789-0.32 1.503-0.837 2.021l-16.183 16.183c-0.783 0.782-1.755 1.377-2.841 1.708l-0.049 0.013-4.091 1.218 1.218-4.091c0.345-1.136 0.94-2.108 1.723-2.891l13.609-13.609zM23.408 4.551l4.021 4.021M25.143 19.047v7.239c0 1.894-1.535 3.429-3.429 3.429v0h-16c-1.894 0-3.429-1.535-3.429-3.429v0-16c0-1.894 1.535-3.429 3.429-3.429v0h7.239"></path>
</symbol>
<symbol id="icon-minus" viewBox="0 0 224 32">
<path fill="#407bff" style="fill: var(--color3, #407bff)" d="M4 16c0-6.627 5.373-12 12-12v0h192c6.627 0 12 5.373 12 12s-5.373 12-12 12v0h-192c-6.627 0-12-5.373-12-12v0z"></path>
</symbol>
<symbol id="icon-plus" viewBox="0 0 32 32">
<path fill="#407bff" style="fill: var(--color3, #407bff)" d="M16 0.571c0.947 0 1.714 0.768 1.714 1.714v0 12h12c0.947 0 1.714 0.768 1.714 1.714s-0.767 1.714-1.714 1.714v0h-12v12c0 0.947-0.767 1.714-1.714 1.714s-1.714-0.767-1.714-1.714v0-12h-12c-0.947 0-1.714-0.767-1.714-1.714s0.768-1.714 1.714-1.714v0h12v-12c0-0.947 0.768-1.714 1.714-1.714v0z"></path>
</symbol>
<symbol id="icon-cross" viewBox="0 0 32 32">
<path fill="none" stroke="#407bff" style="stroke: var(--color3, #407bff)" stroke-linejoin="round" stroke-linecap="round" stroke-miterlimit="4" stroke-width="2" d="M8 24l16-16M8 8l16 16"></path>
</symbol>
<symbol id="icon-glass" viewBox="0 0 25 32">
<path fill="#407bff" style="fill: var(--color3, #407bff)" d="M0.277 0.139l2.283 31.637v0.085h19.639l2.282-31.622v-0.1h-24.204zM21.393 30.976h-18.020l-1.711-23.697h0.94l1.547 20.883c0.011 0.11 0.059 0.212 0.139 0.288 0.080 0.075 0.185 0.117 0.293 0.117h0.036c0.119-0.009 0.223-0.064 0.295-0.149l0-0.001c0.066-0.076 0.106-0.176 0.106-0.285 0-0.012-0-0.023-0.001-0.034l0 0.002-1.547-20.821h19.634l-1.712 23.696zM23.165 6.394h-19.762l-0.339-4.617c-0.011-0.117-0.065-0.219-0.146-0.292l-0-0c-0.078-0.070-0.181-0.113-0.294-0.113-0.003 0-0.006 0-0.009 0h0c-0.119 0.012-0.223 0.069-0.295 0.154l-0.001 0.001c-0.066 0.078-0.106 0.18-0.106 0.292 0 0.010 0 0.019 0.001 0.028l-0-0.001 0.34 4.555h-0.954l-0.387-5.38h22.339l-0.388 5.373z"></path>
<path fill="#407bff" style="fill: var(--color3, #407bff)" d="M7.232 11.661c0.283 0 0.559-0.085 0.795-0.245 0.236-0.159 0.419-0.386 0.528-0.651 0.069-0.164 0.109-0.355 0.109-0.555 0-0.4-0.16-0.764-0.419-1.029l0 0c-0.257-0.263-0.615-0.426-1.011-0.426-0.198 0-0.387 0.041-0.559 0.115l0.009-0.004c-0.267 0.114-0.486 0.299-0.64 0.53l-0.003 0.005c-0.152 0.227-0.242 0.507-0.242 0.807 0 0.4 0.16 0.763 0.42 1.028l-0-0c0.269 0.272 0.633 0.425 1.013 0.425zM7.232 9.636c0 0 0.001 0 0.001 0 0.235 0 0.435 0.145 0.518 0.349l0.001 0.004c0.027 0.065 0.043 0.14 0.043 0.218 0 0.158-0.063 0.301-0.165 0.406l0-0c-0.102 0.105-0.245 0.17-0.402 0.17-0.31 0-0.561-0.251-0.561-0.561 0-0.005 0-0.010 0-0.015v0.001c0-0 0-0.001 0-0.001 0-0.157 0.063-0.3 0.165-0.404l-0 0c0.107-0.107 0.25-0.166 0.399-0.166zM7.226 16.382c0.003 0.287 0.091 0.565 0.25 0.802 0.16 0.237 0.385 0.42 0.647 0.527 0.158 0.067 0.342 0.105 0.535 0.105 0.401 0 0.762-0.167 1.019-0.434l0-0c0.254-0.264 0.411-0.624 0.411-1.020 0-0.203-0.041-0.397-0.116-0.573l0.004 0.010c-0.113-0.268-0.296-0.488-0.525-0.644l-0.005-0.003c-0.222-0.15-0.495-0.24-0.789-0.24-0.401 0-0.763 0.166-1.021 0.434l-0 0c-0.254 0.262-0.411 0.619-0.411 1.013 0 0.008 0 0.017 0 0.025l-0-0.001zM9.215 16.382c-0.001 0.235-0.142 0.438-0.344 0.528l-0.004 0.001c-0.064 0.028-0.138 0.044-0.216 0.044-0.156 0-0.298-0.065-0.399-0.168l-0-0c-0.101-0.104-0.163-0.245-0.163-0.401 0-0.313 0.25-0.568 0.561-0.576h0.001c0.149 0 0.293 0.061 0.399 0.167 0.107 0.108 0.165 0.254 0.165 0.405zM17.401 16.418c0.283 0 0.56-0.085 0.795-0.245 0.236-0.159 0.419-0.385 0.528-0.651 0.069-0.164 0.108-0.355 0.108-0.555 0-0.4-0.16-0.763-0.419-1.029l0 0c-0.257-0.263-0.615-0.426-1.011-0.426-0.198 0-0.387 0.041-0.559 0.115l0.009-0.004c-0.267 0.114-0.486 0.298-0.64 0.529l-0.003 0.005c-0.151 0.227-0.242 0.507-0.242 0.807 0 0.4 0.16 0.763 0.42 1.028l-0-0c0.269 0.272 0.634 0.425 1.013 0.425zM17.401 14.4c0 0 0.001 0 0.002 0 0.235 0 0.436 0.145 0.519 0.35l0.001 0.004c0.027 0.064 0.042 0.139 0.042 0.218 0 0.159-0.064 0.303-0.167 0.408l0-0c-0.102 0.103-0.243 0.166-0.399 0.166-0.31 0-0.562-0.252-0.562-0.562 0-0.006 0-0.012 0-0.018l-0 0.001c0.001-0.157 0.065-0.298 0.168-0.401l-0 0c0.101-0.102 0.242-0.165 0.397-0.165h0zM12.413 13.68c0.283 0 0.56-0.085 0.796-0.245 0.235-0.16 0.418-0.386 0.527-0.651 0.069-0.164 0.109-0.356 0.109-0.556 0-0.4-0.16-0.763-0.419-1.028l0 0c-0.257-0.263-0.615-0.426-1.011-0.426-0.198 0-0.387 0.041-0.559 0.115l0.009-0.004c-0.267 0.114-0.486 0.298-0.64 0.529l-0.003 0.005c-0.152 0.227-0.242 0.507-0.242 0.807 0 0.4 0.16 0.763 0.42 1.028l-0-0c0.268 0.272 0.633 0.426 1.012 0.426zM12.413 11.654c0.001 0 0.001 0 0.002 0 0.235 0 0.436 0.145 0.518 0.35l0.001 0.004c0.027 0.064 0.042 0.139 0.042 0.218 0 0.158-0.063 0.301-0.165 0.405l0-0c-0.102 0.103-0.244 0.167-0.401 0.167-0.078 0-0.151-0.016-0.219-0.044l0.004 0.001c-0.206-0.088-0.348-0.288-0.348-0.522 0-0.003 0-0.005 0-0.008v0c-0-0.009-0.001-0.019-0.001-0.030 0-0.153 0.059-0.291 0.155-0.395l-0 0c0.103-0.11 0.249-0.178 0.411-0.178h0v0.030zM9.682 21.915c0.006 0.236 0.081 0.465 0.213 0.658 0.134 0.193 0.321 0.342 0.538 0.429 0.128 0.053 0.277 0.084 0.434 0.084 0.333 0 0.633-0.139 0.846-0.363l0-0c0.209-0.216 0.337-0.511 0.337-0.836 0-0.169-0.035-0.33-0.098-0.476l0.003 0.008c-0.093-0.221-0.243-0.402-0.432-0.531l-0.004-0.003c-0.183-0.125-0.41-0.2-0.654-0.201h-0c-0.33 0.009-0.626 0.15-0.838 0.371l-0 0c-0.213 0.222-0.345 0.525-0.345 0.858 0 0.001 0 0.001 0 0.002v-0zM10.866 21.595c0 0 0 0 0.001 0 0.131 0 0.243 0.081 0.29 0.195l0.001 0.002c0.015 0.036 0.024 0.078 0.024 0.122 0 0.089-0.036 0.169-0.093 0.227l0-0c-0.057 0.057-0.136 0.093-0.223 0.093-0.174 0-0.315-0.141-0.315-0.315 0-0.001 0-0.003 0-0.004v0c0-0.085 0.032-0.166 0.092-0.226 0.057-0.058 0.136-0.094 0.224-0.094 0 0 0 0 0 0v0zM15.404 20.579c0.243 0.009 0.483-0.057 0.689-0.189 0.206-0.131 0.368-0.322 0.465-0.548 0.064-0.145 0.101-0.314 0.101-0.492 0-0.337-0.134-0.643-0.351-0.868l0 0c-0.22-0.224-0.525-0.363-0.864-0.363-0.171 0-0.334 0.036-0.482 0.1l0.008-0.003c-0.224 0.096-0.413 0.259-0.544 0.466-0.121 0.189-0.194 0.419-0.194 0.666 0 0.337 0.134 0.642 0.351 0.866l-0-0c0.218 0.224 0.512 0.354 0.821 0.365zM15.404 19.059c0.084 0 0.164 0.034 0.224 0.094 0.057 0.058 0.092 0.138 0.092 0.226s-0.035 0.168-0.092 0.226l0-0c-0.057 0.058-0.136 0.094-0.224 0.094s-0.167-0.036-0.224-0.094l-0-0c-0.058-0.058-0.095-0.138-0.097-0.226v-0c0-0.089 0.037-0.17 0.095-0.228v0c0.057-0.057 0.135-0.092 0.221-0.092 0.002 0 0.003 0 0.005 0h-0zM17.904 10.645c0.24 0 0.475-0.073 0.674-0.207 0.198-0.136 0.352-0.324 0.444-0.544l0.003-0.008c0.058-0.139 0.092-0.3 0.092-0.47 0-0.339-0.136-0.647-0.355-0.872l0 0c-0.219-0.222-0.523-0.359-0.86-0.359-0.167 0-0.326 0.034-0.471 0.095l0.008-0.003c-0.226 0.097-0.411 0.253-0.541 0.449l-0.003 0.005c-0.128 0.193-0.205 0.429-0.205 0.684 0 0.339 0.136 0.646 0.355 0.871l-0-0c0.227 0.23 0.537 0.361 0.859 0.361zM17.904 9.125c0.026-0.008 0.056-0.013 0.088-0.013 0.123 0 0.23 0.072 0.281 0.176l0.001 0.002c0.021 0.041 0.033 0.090 0.033 0.142 0 0.104-0.049 0.196-0.125 0.256l-0.001 0.001c-0.052 0.040-0.119 0.065-0.191 0.065-0.031 0-0.061-0.004-0.089-0.013l0.002 0.001c-0.026 0.008-0.056 0.012-0.087 0.012-0.123 0-0.23-0.072-0.28-0.176l-0.001-0.002c-0.021-0.042-0.033-0.091-0.033-0.142 0-0.103 0.048-0.196 0.124-0.255l0.001-0.001c0.052-0.041 0.119-0.065 0.192-0.065 0.031 0 0.060 0.004 0.088 0.013l-0.002-0.001zM6.042 29.429c-0.11 0.052-0.193 0.146-0.231 0.26l-0.001 0.003c-0.014 0.041-0.022 0.089-0.022 0.139 0 0.078 0.020 0.152 0.055 0.216l-0.001-0.002c0.075 0.141 0.22 0.237 0.388 0.24h0c0.004 0 0.008 0 0.012 0 0.066 0 0.129-0.016 0.184-0.044l-0.002 0.001c1.738-0.923 3.798-1.468 5.985-1.477h0.003c2.204 0.032 4.378 0.529 6.383 1.459 0.059 0.032 0.128 0.050 0.202 0.050 0.114 0 0.217-0.044 0.294-0.116l-0 0c0.088-0.082 0.144-0.198 0.144-0.327 0-0.060-0.012-0.118-0.034-0.171l0.001 0.003c-0.043-0.11-0.125-0.196-0.228-0.245l-0.003-0.001c-1.981-0.942-4.3-1.506-6.748-1.539l-0.011-0c-2.214 0.002-4.397 0.533-6.371 1.551z"></path>
</symbol>
</defs>
</svg>
